<?xml version="1.0" encoding="UTF-8" standalone="no"?>
<svg
   xmlns:dc="http://purl.org/dc/elements/1.1/"
   xmlns:cc="http://creativecommons.org/ns#"
   xmlns:rdf="http://www.w3.org/1999/02/22-rdf-syntax-ns#"
   xmlns:svg="http://www.w3.org/2000/svg"
   xmlns="http://www.w3.org/2000/svg"
   viewBox="0 0 714 415"
   height="415"
   width="714"
   id="svg815"
   version="1.1">
  <metadata
     id="metadata821">
    <rdf:RDF>
      <cc:Work
         rdf:about="">
        <dc:format>image/svg+xml</dc:format>
        <dc:type
           rdf:resource="http://purl.org/dc/dcmitype/StillImage" />
        <dc:title></dc:title>
      </cc:Work>
    </rdf:RDF>
  </metadata>
  <defs
     id="defs819" />
  <g
     transform="translate(-14.85679,-6.9914326)"
     id="g825">
    <path
       id="path829"
       d="M 0,207.5 V 0 H 357 714 V 207.5 415 H 357 0 Z m 699,191 V 394 H 354 9 v 4.5 4.5 H 354 699 Z M 202.74063,373.75 c 0.54204,-0.6875 1.27279,-4.81316 1.6239,-9.16812 0.35111,-4.35497 0.77559,-8.05533 0.94328,-8.22302 0.53968,-0.53969 14.01006,-3.16663 19.94219,-3.88906 l 5.75,-0.70025 v 5.97566 c 0,13.1146 1.8916,18.22033 5.43689,14.67505 1.16706,-1.16707 1.38248,-3.18564 0.98258,-9.20751 -0.2817,-4.24201 -0.12311,-14.23775 0.35242,-22.21275 0.85163,-14.28252 0.49455,-17 -2.23382,-17 C 233.3075,324 232,329.00632 232,337.54705 V 346 h -2.86901 c -2.90923,0 -19.17212,2.61469 -22.38099,3.59833 -1.60245,0.49122 -1.75,-0.5258 -1.75,-12.06233 0,-10.32355 -0.27319,-12.7036 -1.51273,-13.17926 -3.70772,-1.42278 -4.15086,0.91568 -4.7921,25.28805 -0.34243,13.01499 -0.38737,24.04423 -0.0999,24.50941 0.77071,1.24703 3.01609,1.02809 4.14533,-0.4042 z M 94,370.23282 c 9.81369,-4.96912 11.41343,-12.69628 3.584764,-17.31531 l -3.445992,-2.03318 2.312984,-3.40838 c 5.006344,-7.37725 3.893074,-14.82294 -3.00273,-20.08263 -3.168427,-2.41667 -4.896517,-2.92755 -10.934065,-3.23243 -10.159679,-0.51304 -10.055486,-0.69068 -10.851406,18.50031 -0.952723,22.97177 -0.840571,28.75466 0.586445,30.23908 2.147928,2.23433 15.2404,0.62864 21.75,-2.66746 z m -17,-9.86165 v -6.62883 l 5.25,0.69468 c 7.382733,0.97689 13.99366,4.04001 13.577547,6.29105 C 95.327596,363.43265 87.342244,367 81.78811,367 H 77 Z M 78.211067,339.25 78.5,330.5 l 3.53184,-0.29736 c 5.027475,-0.42328 10.365195,3.30739 10.778072,7.53308 0.170452,1.74453 -0.203269,4.13076 -0.830491,5.30273 C 90.618885,345.58064 85.261747,348 80.993186,348 h -3.071052 z m 219.586093,33.49441 c 0.57313,-0.69058 1.28304,-2.37808 1.57757,-3.75 2.64619,-12.32568 5.89677,-26.04846 6.11145,-25.80031 0.14555,0.16824 1.71726,6.1559 3.49268,13.3059 3.70082,14.90404 4.37786,16.5 6.99962,16.5 2.92598,0 4.56769,-3.16987 9.14343,-17.65448 2.31815,-7.33817 4.39983,-13.15711 4.62596,-12.93098 0.22613,0.22613 1.4885,5.92014 2.80526,12.65337 3.32254,16.98968 4.04646,18.93209 7.05581,18.93209 3.54911,0 3.81001,-1.9151 1.43852,-10.55925 -1.16186,-4.23503 -3.19234,-13.97134 -4.51217,-21.63625 C 334.0679,327.47518 333.09245,325 329.91274,325 c -2.42116,0 -3.24894,1.74808 -5.91923,12.5 -1.22936,4.95 -3.39329,12.13283 -4.80874,15.96185 l -2.57354,6.96185 -1.29796,-4.96185 C 314.5994,352.73283 313.10885,346 312.00094,340.5 309.49533,328.06136 308.29069,325 305.90173,325 c -2.58118,0 -4.51741,3.45882 -5.87784,10.5 -0.63759,3.3 -2.45436,10.95 -4.03726,17 -4.01948,15.36288 -4.17649,21.5 -0.55006,21.5 0.7252,0 1.78746,-0.56502 2.36059,-1.25559 z m 75,0 c 0.57313,-0.69058 1.28304,-2.37808 1.57757,-3.75 2.64619,-12.32568 5.89677,-26.04846 6.11145,-25.80031 0.14555,0.16824 1.71726,6.1559 3.49268,13.3059 3.70082,14.90404 4.37786,16.5 6.99962,16.5 2.92598,0 4.56769,-3.16987 9.14343,-17.65448 2.31815,-7.33817 4.39983,-13.15711 4.62596,-12.93098 0.22613,0.22613 1.4885,5.92014 2.80526,12.65337 3.32254,16.98968 4.04646,18.93209 7.05581,18.93209 3.54911,0 3.81001,-1.9151 1.43852,-10.55925 -1.16186,-4.23503 -3.19234,-13.97134 -4.51217,-21.63625 C 409.0679,327.47518 408.09245,325 404.91274,325 c -2.42116,0 -3.24894,1.74808 -5.91923,12.5 -1.22936,4.95 -3.39329,12.13283 -4.80874,15.96185 l -2.57354,6.96185 -1.29796,-4.96185 C 389.5994,352.73283 388.10885,346 387.00094,340.5 384.49533,328.06136 383.29069,325 380.90173,325 c -2.58118,0 -4.51741,3.45882 -5.87784,10.5 -0.63759,3.3 -2.45436,10.95 -4.03726,17 -4.01948,15.36288 -4.17649,21.5 -0.55006,21.5 0.7252,0 1.78746,-0.56502 2.36059,-1.25559 z m 115.01288,-6.01588 c 2.19494,-3.9993 6.35104,-12.8868 9.23577,-19.75 2.88472,-6.86319 5.88924,-13.46501 6.6767,-14.67071 2.01614,-3.08697 1.2913,-6.7347 -1.41478,-7.11981 -2.50856,-0.35699 -3.52608,1.29288 -9.32617,15.12198 -2.03226,4.84549 -4.08821,8.89549 -4.56878,9 -0.48057,0.10451 -1.95331,-1.83499 -3.27276,-4.30999 -1.31945,-2.475 -4.66189,-8.00947 -7.42764,-12.29883 -3.94343,-6.11578 -5.47788,-7.73434 -7.1103,-7.5 -3.55132,0.50981 -2.95142,3.55446 2.31929,11.77103 2.79325,4.35442 5.07863,8.28554 5.07863,8.73581 0,0.45028 1.63059,3.23997 3.62353,6.19933 l 3.62354,5.38064 -3.26866,6.75664 c -3.39289,7.01347 -3.4225,9.95538 -0.10018,9.95538 1.37749,0 3.09961,-2.11105 5.93181,-7.27147 z m 53.95905,5.1412 c 8.56086,-4.14424 14.24586,-15.2632 14.21446,-27.80123 -0.0293,-11.67836 -5.4802,-17.75913 -16.84338,-18.78951 -7.33469,-0.66508 -12.21446,0.88989 -17.34856,5.52824 -5.58689,5.04743 -8.98406,12.25869 -9.56376,20.30129 -0.58448,8.10881 0.77748,12.53507 5.16575,16.78835 6.34722,6.15197 16.46693,7.80134 24.37549,3.97286 z M 529.5,367.0907 c -4.77926,-1.1843 -7.46506,-2.98552 -9.54977,-6.40452 -3.66385,-6.00884 -1.65188,-16.16991 4.66244,-23.54677 4.53974,-5.30367 9.30462,-6.7151 16.62712,-4.9252 7.04984,1.72324 9.13628,5.38588 8.35153,14.66068 -1.14756,13.56264 -10.19658,22.66772 -20.09132,20.21581 z m 96.05581,5.02317 c 4.88137,-2.21719 10.97277,-9.05268 12.48433,-14.00936 0.60456,-1.98248 1.57765,-4.58665 2.16241,-5.78705 2.54081,-5.21576 -2.63957,-6.67502 -15.31606,-4.31437 -9.95405,1.85367 -13.70437,4.60761 -10.55858,7.75339 1.20185,1.20186 2.15842,1.17658 6.71824,-0.17754 6.58858,-1.9566 10.95385,-2.04699 10.95385,-0.22682 0,1.97806 -4.09117,7.66122 -7.14105,9.91984 -1.78297,1.3204 -4.34466,1.98156 -7.8845,2.03496 -4.39633,0.0663 -5.56061,-0.31257 -7.20657,-2.34525 -6.22632,-7.68918 4.37985,-35.21167 13.5693,-35.21167 1.53011,0 4.57455,0.80832 6.76543,1.79627 3.53339,1.59334 4.15218,1.62752 5.47715,0.30254 2.0844,-2.0844 0.88895,-4.39851 -3.29882,-6.38574 -8.40439,-3.98814 -14.14096,-2.80334 -20.27986,4.18848 -9.54899,10.8757 -13.29802,30.14154 -7.56733,38.88768 3.50461,5.34871 13.49419,7.03932 21.12206,3.57464 z m -594.253321,-6.01725 3.142131,-6.90338 7.845793,-1.69518 c 4.315186,-0.93236 7.991333,-1.53833 8.169217,-1.34662 0.177884,0.19171 1.064311,3.27356 1.969838,6.84856 1.768465,6.98186 4.422211,10.65463 6.987255,9.67033 1.948225,-0.7476 2.007668,-3.21603 0.200773,-8.33731 C 58.857119,362.17788 56.755789,353.2338 54.947874,344.45729 51.797975,329.16613 50.763626,326 48.918024,326 c -1.722019,0 -6.019708,5.71048 -12.52165,16.63793 -3.686817,6.19623 -7.338051,11.50945 -8.113853,11.80715 -0.775802,0.2977 -1.279993,1.33185 -1.120426,2.2981 0.159567,0.96625 -0.764822,4.34661 -2.054199,7.51192 -1.899249,4.66249 -2.108781,6.03891 -1.103664,7.25 2.363264,2.84756 4.13962,1.53116 7.298257,-5.40848 z M 39,350.54019 c 0,-0.25289 1.739298,-3.21061 3.865107,-6.57271 4.134316,-6.53868 4.488661,-6.45967 5.646139,1.25895 l 0.672137,4.48213 -3.841692,0.63471 C 40.738449,351.10381 39,351.15779 39,350.54019 Z m 76.79381,14.69921 c 0.20748,-5.11216 0.67477,-7.2394 1.59028,-7.2394 2.43453,0 13.10713,5.926 18.02618,10.0091 5.21667,4.33016 7.9018,4.77886 8.38689,1.40152 0.32216,-2.24293 -6.78748,-9.53783 -11.29897,-11.5934 -1.374,-0.62604 -2.49819,-1.40429 -2.49819,-1.72945 0,-0.32516 1.97294,-1.63785 4.38431,-2.91708 11.16385,-5.9224 9.31461,-17.98848 -3.94811,-25.76095 -5.14759,-3.01669 -17.6022,-4.56819 -18.96536,-2.36256 -0.4465,0.72246 -0.98581,11.1678 -1.19846,23.21189 -0.39982,22.64487 -0.0181,25.21977 3.63566,24.52321 1.24757,-0.23783 1.65552,-1.86959 1.88577,-7.54288 z m 0.5759,-17.4894 c 0.33164,-1.2375 0.60913,-5.57102 0.61664,-9.63005 L 117,330.7399 l 4.51059,0.5084 c 5.56544,0.62731 10.96505,4.17227 13.06893,8.58004 1.48182,3.1045 1.46548,3.46446 -0.24307,5.35238 -3.04413,3.36372 -6.94132,4.81928 -12.90342,4.81928 -5.38815,0 -5.63669,-0.11045 -5.06332,-2.25 z m 41.93278,18.34662 3.14213,-6.90338 7.84579,-1.69518 c 4.31519,-0.93236 7.99134,-1.53833 8.16922,-1.34662 0.17788,0.19171 1.06431,3.27356 1.96984,6.84856 1.76846,6.98186 4.42221,10.65463 6.98725,9.67033 1.94823,-0.7476 2.00767,-3.21603 0.20078,-8.33731 -0.76038,-2.15514 -2.86171,-11.09922 -4.66963,-19.87573 C 178.79797,329.16613 177.76363,326 175.91802,326 c -1.72201,0 -6.0197,5.71048 -12.52165,16.63793 -3.68681,6.19623 -7.33805,11.50945 -8.11385,11.80715 -0.7758,0.2977 -1.27999,1.33185 -1.12043,2.2981 0.15957,0.96625 -0.76482,4.34661 -2.05419,7.51192 -1.89925,4.66249 -2.10879,6.03891 -1.10367,7.25 2.36327,2.84756 4.13962,1.53116 7.29826,-5.40848 z M 166,350.54019 c 0,-0.25289 1.7393,-3.21061 3.86511,-6.57271 4.13431,-6.53868 4.48866,-6.45967 5.64614,1.25895 l 0.67213,4.48213 -3.84169,0.63471 C 167.73845,351.10381 166,351.15779 166,350.54019 Z m 88.30249,15.55643 3.14213,-6.90338 7.84579,-1.69518 c 4.31519,-0.93236 7.99134,-1.53833 8.16922,-1.34662 0.17788,0.19171 1.06431,3.27356 1.96984,6.84856 1.76846,6.98186 4.42221,10.65463 6.98725,9.67033 1.94823,-0.7476 2.00767,-3.21603 0.20078,-8.33731 -0.76038,-2.15514 -2.86171,-11.09922 -4.66963,-19.87573 C 274.79797,329.16613 273.76363,326 271.91802,326 c -1.72201,0 -6.0197,5.71048 -12.52165,16.63793 -3.68681,6.19623 -7.33805,11.50945 -8.11385,11.80715 -0.7758,0.2977 -1.27999,1.33185 -1.12043,2.2981 0.15957,0.96625 -0.76482,4.34661 -2.05419,7.51192 -1.89925,4.66249 -2.10879,6.03891 -1.10367,7.25 2.36327,2.84756 4.13962,1.53116 7.29826,-5.40848 z M 262,350.54019 c 0,-0.25289 1.7393,-3.21061 3.86511,-6.57271 4.13431,-6.53868 4.48866,-6.45967 5.64614,1.25895 l 0.67213,4.48213 -3.84169,0.63471 C 263.73845,351.10381 262,351.15779 262,350.54019 Z m 170.30249,15.55643 3.14213,-6.90338 7.84579,-1.69518 c 4.31519,-0.93236 7.99134,-1.53833 8.16922,-1.34662 0.17788,0.19171 1.06431,3.27356 1.96984,6.84856 1.76846,6.98186 4.42221,10.65463 6.98725,9.67033 1.94823,-0.7476 2.00767,-3.21603 0.20078,-8.33731 -0.76038,-2.15514 -2.86171,-11.09922 -4.66963,-19.87573 C 452.79797,329.16613 451.76363,326 449.91802,326 c -1.72201,0 -6.0197,5.71048 -12.52165,16.63793 -3.68681,6.19623 -7.33805,11.50945 -8.11385,11.80715 -0.7758,0.2977 -1.27999,1.33185 -1.12043,2.2981 0.15957,0.96625 -0.76482,4.34661 -2.05419,7.51192 -1.89925,4.66249 -2.10879,6.03891 -1.10367,7.25 2.36327,2.84756 4.13962,1.53116 7.29826,-5.40848 z M 440,350.54019 c 0,-0.25289 1.7393,-3.21061 3.86511,-6.57271 4.13431,-6.53868 4.48866,-6.45967 5.64614,1.25895 l 0.67213,4.48213 -3.84169,0.63471 C 441.73845,351.10381 440,351.15779 440,350.54019 Z m 128.79381,14.69921 c 0.20748,-5.11216 0.67477,-7.2394 1.59028,-7.2394 2.43453,0 13.10713,5.926 18.02618,10.0091 5.21667,4.33016 7.9018,4.77886 8.38689,1.40152 0.32216,-2.24293 -6.78748,-9.53783 -11.29897,-11.5934 -1.374,-0.62604 -2.49819,-1.40429 -2.49819,-1.72945 0,-0.32516 1.97294,-1.63785 4.38431,-2.91708 11.16385,-5.9224 9.31461,-17.98848 -3.94811,-25.76095 -5.14759,-3.01669 -17.6022,-4.56819 -18.96536,-2.36256 -0.4465,0.72246 -0.98581,11.1678 -1.19846,23.21189 -0.39982,22.64487 -0.0181,25.21977 3.63566,24.52321 1.24757,-0.23783 1.65552,-1.86959 1.88577,-7.54288 z m 0.5759,-17.4894 c 0.33164,-1.2375 0.60913,-5.57102 0.61664,-9.63005 L 570,330.7399 l 4.51059,0.5084 c 5.56544,0.62731 10.96505,4.17227 13.06893,8.58004 1.48182,3.1045 1.46548,3.46446 -0.24307,5.35238 -3.04413,3.36372 -6.94132,4.81928 -12.90342,4.81928 -5.38815,0 -5.63669,-0.11045 -5.06332,-2.25 z m 84.93278,18.34662 3.14213,-6.90338 7.84579,-1.69518 c 4.31519,-0.93236 7.99134,-1.53833 8.16922,-1.34662 0.17788,0.19171 1.06431,3.27356 1.96984,6.84856 1.76846,6.98186 4.42221,10.65463 6.98725,9.67033 1.94823,-0.7476 2.00767,-3.21603 0.20078,-8.33731 -0.76038,-2.15514 -2.86171,-11.09922 -4.66963,-19.87573 C 674.79797,329.16613 673.76363,326 671.91802,326 c -1.72201,0 -6.0197,5.71048 -12.52165,16.63793 -3.68681,6.19623 -7.33805,11.50945 -8.11385,11.80715 -0.7758,0.2977 -1.27999,1.33185 -1.12043,2.2981 0.15957,0.96625 -0.76482,4.34661 -2.05419,7.51192 -1.89925,4.66249 -2.10879,6.03891 -1.10367,7.25 2.36327,2.84756 4.13962,1.53116 7.29826,-5.40848 z M 662,350.54019 c 0,-0.25289 1.7393,-3.21061 3.86511,-6.57271 4.13431,-6.53868 4.48866,-6.45967 5.64614,1.25895 l 0.67213,4.48213 -3.84169,0.63471 C 663.73845,351.10381 662,351.15779 662,350.54019 Z M 447.48676,292.56998 c 6.87724,-2.8735 12.08574,-8.08038 16.82627,-16.82105 C 475.46652,255.18392 564.01434,83.366578 573.44,64 c 4.96498,-10.201376 5.60686,-12.234097 5.68415,-18.000814 0.11364,-8.478418 -1.42744,-13.924932 -5.43463,-19.207136 -3.78021,-4.983007 -11.23895,-10.294917 -16.51221,-11.75954 -10.51133,-2.919474 -23.9738,0.05441 -30.85156,6.815172 -4.34708,4.273132 -6.73144,8.681751 -49.83958,92.152318 -34.82508,67.43202 -41.38513,79.53519 -42.46223,78.34204 -0.41808,-0.46312 -11.38577,-21.13305 -24.37264,-45.93318 C 396.66443,121.60873 383.89155,97.431816 381.26712,92.682377 363.8259,61.118841 336.04195,34.543589 309.43318,23.973458 254.0409,1.9692893 193.35054,13.758108 152.41931,54.472671 c -20.04189,19.93579 -32.6409,43.010326 -38.53256,70.570659 -2.94726,13.78686 -3.21367,38.96837 -0.55327,52.29594 8.83304,44.25006 37.66887,81.01804 78.96834,100.6909 C 211.11875,286.99355 230.40851,291 254.74735,291 c 26.70321,0 49.15645,-6.0173 58.44794,-15.6636 5.7785,-5.99917 7.75706,-11.40668 7.78275,-21.27068 0.0261,-10.02702 -1.81267,-14.65417 -8.59768,-21.63543 -8.72215,-8.97443 -19.54191,-11.06431 -35.88036,-6.93045 -18.10398,4.58058 -31.75057,4.39032 -47.5,-0.66224 -20.31527,-6.51732 -37.08662,-20.85747 -46.00683,-39.3376 -5.76632,-11.94618 -7.35741,-19.03201 -7.40997,-33 -0.0544,-14.46079 1.49576,-21.08002 8.07965,-34.5 3.98121,-8.11492 6.05869,-10.89829 14.24895,-19.09057 8.41366,-8.415741 10.87443,-10.22569 20.0882,-14.77529 12.55098,-6.19746 20.77008,-8.093353 35.18795,-8.116776 23.06236,-0.03747 41.06616,7.519616 55.28599,23.206252 10.48642,11.568124 13.40977,16.704244 58.49778,102.776384 27.36421,52.23776 37.26084,70.79648 41.72924,78.25305 3.72866,6.22215 9.87092,11.14973 16.69534,13.39371 5.14232,1.69088 16.83002,1.12117 22.09046,-1.07678 z"
       style="fill:#fdfdfd" />
    <path
       id="path827"
       d="M 9,398.5 V 394 h 345 345 v 4.5 4.5 H 354 9 Z m 189.5953,-24.3458 c -0.2875,-0.46518 -0.24256,-11.49442 0.0999,-24.50941 0.64124,-24.37237 1.08438,-26.71083 4.7921,-25.28805 1.23954,0.47566 1.51273,2.85571 1.51273,13.17926 0,11.53653 0.14755,12.55355 1.75,12.06233 C 209.95887,348.61469 226.22176,346 229.13099,346 H 232 v -8.45295 C 232,329.00632 233.3075,324 235.53807,324 c 2.72837,0 3.08545,2.71748 2.23382,17 -0.47553,7.975 -0.63412,17.97074 -0.35242,22.21275 0.3999,6.02187 0.18448,8.04044 -0.98258,9.20751 C 232.8916,375.96554 231,370.85981 231,357.74521 v -5.97566 l -5.75,0.70025 c -5.93213,0.72243 -19.40251,3.34937 -19.94219,3.88906 -0.16769,0.16769 -0.59217,3.86805 -0.94328,8.22302 -0.35111,4.35496 -1.08186,8.48062 -1.6239,9.16812 -1.12924,1.43229 -3.37462,1.65123 -4.14533,0.4042 z M 72.25,372.90028 c -1.427016,-1.48442 -1.539168,-7.26731 -0.586445,-30.23908 0.79592,-19.19099 0.691727,-19.01335 10.851406,-18.50031 6.037548,0.30488 7.765638,0.81576 10.934065,3.23243 6.895804,5.25969 8.009074,12.70538 3.00273,20.08263 l -2.312984,3.40838 3.445992,2.03318 C 109.21529,359.77969 99.286503,372.16713 81,373.60914 c -5.492088,0.43309 -7.834652,0.24331 -8.75,-0.70886 z M 91.03811,364.75 c 6.055816,-3.05377 6.283706,-5.27831 0.789437,-7.70607 C 89.447396,355.9922 85.1375,354.8191 82.25,354.43702 L 77,353.74234 V 360.37117 367 h 4.78811 c 2.97674,0 6.47607,-0.85119 9.25,-2.25 z m -3.586483,-18.16534 c 4.050937,-1.69259 5.778717,-4.54593 5.358285,-8.84894 -0.412877,-4.22569 -5.750597,-7.95636 -10.778072,-7.53308 L 78.5,330.5 78.211067,339.25 77.922134,348 h 3.071052 c 1.689078,0 4.595377,-0.6369 6.458441,-1.41534 z M 293.3754,372.7984 c -1.2625,-2.04277 -0.38943,-8.82956 2.61123,-20.2984 1.5829,-6.05 3.39967,-13.7 4.03726,-17 1.36043,-7.04118 3.29666,-10.5 5.87784,-10.5 2.38896,0 3.5936,3.06136 6.09921,15.5 1.10791,5.5 2.59846,12.23283 3.31233,14.96185 l 1.29796,4.96185 2.57354,-6.96185 c 1.41545,-3.82902 3.57938,-11.01185 4.80874,-15.96185 2.67029,-10.75192 3.49807,-12.5 5.91923,-12.5 3.17971,0 4.15516,2.47518 6.62255,16.8045 1.31983,7.66491 3.35031,17.40122 4.51217,21.63625 2.37149,8.64415 2.11059,10.55925 -1.43852,10.55925 -3.00935,0 -3.73327,-1.94241 -7.05581,-18.93209 -1.31676,-6.73323 -2.57913,-12.42724 -2.80526,-12.65337 -0.22613,-0.22613 -2.30781,5.59281 -4.62596,12.93098 C 320.54617,369.83013 318.90446,373 315.97848,373 c -2.62176,0 -3.2988,-1.59596 -6.99962,-16.5 -1.77542,-7.15 -3.34713,-13.13766 -3.49268,-13.3059 -0.21468,-0.24815 -3.46526,13.47463 -6.11145,25.80031 -0.96679,4.50321 -4.27196,6.59892 -5.99933,3.80399 z m 75,0 c -1.2625,-2.04277 -0.38943,-8.82956 2.61123,-20.2984 1.5829,-6.05 3.39967,-13.7 4.03726,-17 1.36043,-7.04118 3.29666,-10.5 5.87784,-10.5 2.38896,0 3.5936,3.06136 6.09921,15.5 1.10791,5.5 2.59846,12.23283 3.31233,14.96185 l 1.29796,4.96185 2.57354,-6.96185 c 1.41545,-3.82902 3.57938,-11.01185 4.80874,-15.96185 2.67029,-10.75192 3.49807,-12.5 5.91923,-12.5 3.17971,0 4.15516,2.47518 6.62255,16.8045 1.31983,7.66491 3.35031,17.40122 4.51217,21.63625 2.37149,8.64415 2.11059,10.55925 -1.43852,10.55925 -3.00935,0 -3.73327,-1.94241 -7.05581,-18.93209 -1.31676,-6.73323 -2.57913,-12.42724 -2.80526,-12.65337 -0.22613,-0.22613 -2.30781,5.59281 -4.62596,12.93098 C 395.54617,369.83013 393.90446,373 390.97848,373 c -2.62176,0 -3.2988,-1.59596 -6.99962,-16.5 -1.77542,-7.15 -3.34713,-13.13766 -3.49268,-13.3059 -0.21468,-0.24815 -3.46526,13.47463 -6.11145,25.80031 -0.96679,4.50321 -4.27196,6.59892 -5.99933,3.80399 z m 110.9481,-0.39777 c -0.33774,-0.88013 0.85618,-4.63784 2.65491,-8.35601 l 3.26866,-6.75664 -3.62354,-5.38064 C 479.63059,348.94798 478,346.15829 478,345.70801 c 0,-0.45027 -2.28538,-4.38139 -5.07863,-8.73581 -5.27071,-8.21657 -5.87061,-11.26122 -2.31929,-11.77103 1.63242,-0.23434 3.16687,1.38422 7.1103,7.5 2.76575,4.28936 6.10819,9.82383 7.42764,12.29883 1.31945,2.475 2.79219,4.4145 3.27276,4.30999 0.48057,-0.10451 2.53652,-4.15451 4.56878,-9 5.80009,-13.8291 6.81761,-15.47897 9.32617,-15.12198 2.70608,0.38511 3.43092,4.03284 1.41478,7.11981 -0.78746,1.2057 -3.79198,7.80752 -6.6767,14.67071 C 489.7627,364.30612 484.32138,374 481.87823,374 c -1.06755,0 -2.21718,-0.71972 -2.55473,-1.59937 z m 45.30127,0.13026 c -4.94906,-1.76408 -10.2636,-6.9065 -11.73018,-11.35028 -1.76481,-5.34743 -0.61625,-15.84168 2.37982,-21.74407 3.08825,-6.08398 9.07813,-11.73773 14.24068,-13.44152 4.91299,-1.62143 14.5223,-0.74132 18.72873,1.71537 5.06518,2.95823 7.72022,8.56972 7.73973,16.35811 0.0527,21.06183 -14.6592,34.41494 -31.35878,28.46239 z m 15.76161,-7.35038 c 7.26894,-4.23212 11.86952,-20.58314 7.92897,-28.18051 -1.52755,-2.94512 -2.64928,-3.70384 -7.07556,-4.78579 -3.90449,-0.95441 -6.27346,-1.01296 -9.19161,-0.22718 -7.10658,1.9136 -14.05404,12.76736 -14.04444,21.94111 0.0113,10.77015 12.46099,17.02896 22.38264,11.25237 z m 68.9391,7.36036 c -8.68393,-3.77732 -10.27024,-18.51395 -3.54087,-32.89428 7.02571,-15.01359 15.35317,-19.47129 26.49633,-14.18352 4.18777,1.98723 5.38322,4.30134 3.29882,6.38574 -1.32497,1.32498 -1.94376,1.2908 -5.47715,-0.30254 -6.24763,-2.81729 -9.04421,-2.36855 -12.95484,2.07873 -5.37424,6.11176 -8.52637,13.81097 -8.96346,21.89366 -0.31624,5.84805 -0.0521,7.42301 1.58357,9.44301 1.64596,2.03268 2.81024,2.41157 7.20657,2.34525 3.53984,-0.0534 6.10153,-0.71456 7.8845,-2.03496 3.04988,-2.25862 7.14105,-7.94178 7.14105,-9.91984 0,-1.82017 -4.36527,-1.72978 -10.95385,0.22682 -4.55982,1.35412 -5.51639,1.3794 -6.71824,0.17754 -3.14579,-3.14578 0.60453,-5.89972 10.55858,-7.75339 12.67649,-2.36065 17.85687,-0.90139 15.31606,4.31437 -0.58476,1.2004 -1.55785,3.80457 -2.16241,5.78705 -1.51156,4.95668 -7.60296,11.79217 -12.48433,14.00936 -4.78829,2.17491 -11.78855,2.35908 -16.23033,0.427 z M 24.004232,371.5051 c -1.005117,-1.21109 -0.795585,-2.58751 1.103664,-7.25 1.289377,-3.16531 2.213766,-6.54567 2.054199,-7.51192 -0.159567,-0.96625 0.344624,-2.0004 1.120426,-2.2981 0.775802,-0.2977 4.427036,-5.61092 8.113853,-11.80715 C 42.898316,331.71048 47.196005,326 48.918024,326 c 1.845602,0 2.879951,3.16613 6.02985,18.45729 1.807915,8.77651 3.909245,17.72059 4.669622,19.87573 1.806895,5.12128 1.747452,7.58971 -0.200773,8.33731 -2.565044,0.9843 -5.21879,-2.68847 -6.987255,-9.67033 -0.905527,-3.575 -1.791954,-6.65685 -1.969838,-6.84856 -0.177884,-0.19171 -3.854031,0.41426 -8.169217,1.34662 l -7.845793,1.69518 -3.142131,6.90338 c -3.158637,6.93964 -4.934993,8.25604 -7.298257,5.40848 z m 21.337459,-21.16183 3.841692,-0.63471 -0.672137,-4.48213 C 47.353768,337.50781 46.999423,337.4288 42.865107,343.96748 40.739298,347.32958 39,350.2873 39,350.54019 c 0,0.6176 1.738449,0.56362 6.341691,-0.19692 z m 65.759219,21.27832 c -1.38947,-1.67421 -1.0511,-44.27513 0.36993,-46.57441 1.36316,-2.20563 13.81777,-0.65413 18.96536,2.36256 13.26272,7.77247 15.11196,19.83855 3.94811,25.76095 -2.41137,1.27923 -4.38431,2.59192 -4.38431,2.91708 0,0.32516 1.12419,1.10341 2.49819,1.72945 4.51149,2.05557 11.62113,9.35047 11.29897,11.5934 -0.48509,3.37734 -3.17022,2.92864 -8.38689,-1.40152 C 130.49122,363.926 119.81862,358 117.38409,358 c -0.91551,0 -1.3828,2.12724 -1.59028,7.2394 -0.23025,5.67329 -0.6382,7.30505 -1.88577,7.54288 -0.87558,0.16693 -2.13879,-0.35539 -2.80713,-1.16069 z m 18.70111,-23.01921 c 1.48649,-0.76869 3.52698,-2.30844 4.53443,-3.42166 1.70855,-1.88792 1.72489,-2.24788 0.24307,-5.35238 -2.10388,-4.40777 -7.50349,-7.95273 -13.06893,-8.58004 L 117,330.7399 l -0.0136,7.38005 c -0.008,4.05903 -0.285,8.39255 -0.61664,9.63005 -0.57337,2.13955 -0.32483,2.25 5.06332,2.25 3.11646,0 6.88251,-0.62893 8.36899,-1.39762 z m 21.20221,22.90272 c -1.00512,-1.21109 -0.79558,-2.58751 1.10367,-7.25 1.28937,-3.16531 2.21376,-6.54567 2.05419,-7.51192 -0.15956,-0.96625 0.34463,-2.0004 1.12043,-2.2981 0.7758,-0.2977 4.42704,-5.61092 8.11385,-11.80715 C 169.89832,331.71048 174.19601,326 175.91802,326 c 1.84561,0 2.87995,3.16613 6.02985,18.45729 1.80792,8.77651 3.90925,17.72059 4.66963,19.87573 1.80689,5.12128 1.74745,7.58971 -0.20078,8.33731 -2.56504,0.9843 -5.21879,-2.68847 -6.98725,-9.67033 -0.90553,-3.575 -1.79196,-6.65685 -1.96984,-6.84856 -0.17788,-0.19171 -3.85403,0.41426 -8.16922,1.34662 l -7.84579,1.69518 -3.14213,6.90338 c -3.15864,6.93964 -4.93499,8.25604 -7.29826,5.40848 z m 21.33746,-21.16183 3.84169,-0.63471 -0.67213,-4.48213 c -1.15748,-7.71862 -1.51183,-7.79763 -5.64614,-1.25895 -2.12581,3.3621 -3.86511,6.31982 -3.86511,6.57271 0,0.6176 1.73845,0.56362 6.34169,-0.19692 z m 74.66254,21.16183 c -1.00512,-1.21109 -0.79558,-2.58751 1.10367,-7.25 1.28937,-3.16531 2.21376,-6.54567 2.05419,-7.51192 -0.15956,-0.96625 0.34463,-2.0004 1.12043,-2.2981 0.7758,-0.2977 4.42704,-5.61092 8.11385,-11.80715 C 265.89832,331.71048 270.19601,326 271.91802,326 c 1.84561,0 2.87995,3.16613 6.02985,18.45729 1.80792,8.77651 3.90925,17.72059 4.66963,19.87573 1.80689,5.12128 1.74745,7.58971 -0.20078,8.33731 -2.56504,0.9843 -5.21879,-2.68847 -6.98725,-9.67033 -0.90553,-3.575 -1.79196,-6.65685 -1.96984,-6.84856 -0.17788,-0.19171 -3.85403,0.41426 -8.16922,1.34662 l -7.84579,1.69518 -3.14213,6.90338 c -3.15864,6.93964 -4.93499,8.25604 -7.29826,5.40848 z m 21.33746,-21.16183 3.84169,-0.63471 -0.67213,-4.48213 c -1.15748,-7.71862 -1.51183,-7.79763 -5.64614,-1.25895 -2.12581,3.3621 -3.86511,6.31982 -3.86511,6.57271 0,0.6176 1.73845,0.56362 6.34169,-0.19692 z m 156.66254,21.16183 c -1.00512,-1.21109 -0.79558,-2.58751 1.10367,-7.25 1.28937,-3.16531 2.21376,-6.54567 2.05419,-7.51192 -0.15956,-0.96625 0.34463,-2.0004 1.12043,-2.2981 0.7758,-0.2977 4.42704,-5.61092 8.11385,-11.80715 C 443.89832,331.71048 448.19601,326 449.91802,326 c 1.84561,0 2.87995,3.16613 6.02985,18.45729 1.80792,8.77651 3.90925,17.72059 4.66963,19.87573 1.80689,5.12128 1.74745,7.58971 -0.20078,8.33731 -2.56504,0.9843 -5.21879,-2.68847 -6.98725,-9.67033 -0.90553,-3.575 -1.79196,-6.65685 -1.96984,-6.84856 -0.17788,-0.19171 -3.85403,0.41426 -8.16922,1.34662 l -7.84579,1.69518 -3.14213,6.90338 c -3.15864,6.93964 -4.93499,8.25604 -7.29826,5.40848 z m 21.33746,-21.16183 3.84169,-0.63471 -0.67213,-4.48213 c -1.15748,-7.71862 -1.51183,-7.79763 -5.64614,-1.25895 -2.12581,3.3621 -3.86511,6.31982 -3.86511,6.57271 0,0.6176 1.73845,0.56362 6.34169,-0.19692 z m 117.75922,21.27832 c -1.38947,-1.67421 -1.0511,-44.27513 0.36993,-46.57441 1.36316,-2.20563 13.81777,-0.65413 18.96536,2.36256 13.26272,7.77247 15.11196,19.83855 3.94811,25.76095 -2.41137,1.27923 -4.38431,2.59192 -4.38431,2.91708 0,0.32516 1.12419,1.10341 2.49819,1.72945 4.51149,2.05557 11.62113,9.35047 11.29897,11.5934 -0.48509,3.37734 -3.17022,2.92864 -8.38689,-1.40152 C 583.49122,363.926 572.81862,358 570.38409,358 c -0.91551,0 -1.3828,2.12724 -1.59028,7.2394 -0.23025,5.67329 -0.6382,7.30505 -1.88577,7.54288 -0.87558,0.16693 -2.13879,-0.35539 -2.80713,-1.16069 z m 18.70111,-23.01921 c 1.48649,-0.76869 3.52698,-2.30844 4.53443,-3.42166 1.70855,-1.88792 1.72489,-2.24788 0.24307,-5.35238 -2.10388,-4.40777 -7.50349,-7.95273 -13.06893,-8.58004 L 570,330.7399 l -0.0136,7.38005 c -0.008,4.05903 -0.285,8.39255 -0.61664,9.63005 -0.57337,2.13955 -0.32483,2.25 5.06332,2.25 3.11646,0 6.88251,-0.62893 8.36899,-1.39762 z m 64.20221,22.90272 c -1.00512,-1.21109 -0.79558,-2.58751 1.10367,-7.25 1.28937,-3.16531 2.21376,-6.54567 2.05419,-7.51192 -0.15956,-0.96625 0.34463,-2.0004 1.12043,-2.2981 0.7758,-0.2977 4.42704,-5.61092 8.11385,-11.80715 C 665.89832,331.71048 670.19601,326 671.91802,326 c 1.84561,0 2.87995,3.16613 6.02985,18.45729 1.80792,8.77651 3.90925,17.72059 4.66963,19.87573 1.80689,5.12128 1.74745,7.58971 -0.20078,8.33731 -2.56504,0.9843 -5.21879,-2.68847 -6.98725,-9.67033 -0.90553,-3.575 -1.79196,-6.65685 -1.96984,-6.84856 -0.17788,-0.19171 -3.85403,0.41426 -8.16922,1.34662 l -7.84579,1.69518 -3.14213,6.90338 c -3.15864,6.93964 -4.93499,8.25604 -7.29826,5.40848 z m 21.33746,-21.16183 3.84169,-0.63471 -0.67213,-4.48213 c -1.15748,-7.71862 -1.51183,-7.79763 -5.64614,-1.25895 -2.12581,3.3621 -3.86511,6.31982 -3.86511,6.57271 0,0.6176 1.73845,0.56362 6.34169,-0.19692 z M 425.3963,293.64676 C 418.57188,291.40278 412.42962,286.4752 408.70096,280.25305 404.23256,272.79648 394.33593,254.23776 366.97172,202 321.88371,115.92786 318.96036,110.79174 308.47394,99.223616 294.25411,83.53698 276.25031,75.979897 253.18795,76.017364 238.77008,76.040787 230.55098,77.93668 218,84.13414 c -9.21377,4.5496 -11.67454,6.359549 -20.0882,14.77529 -8.19026,8.19228 -10.26774,10.97565 -14.24895,19.09057 -6.58389,13.41998 -8.13407,20.03921 -8.07965,34.5 0.0526,13.96799 1.64365,21.05382 7.40997,33 8.92021,18.48013 25.69156,32.82028 46.00683,39.3376 15.74943,5.05256 29.39602,5.24282 47.5,0.66224 16.33845,-4.13386 27.15821,-2.04398 35.88036,6.93045 6.78501,6.98126 8.62379,11.60841 8.59768,21.63543 -0.0257,9.864 -2.00425,15.27151 -7.78275,21.27068 -15.18416,15.76399 -65.14045,20.68954 -102.00627,10.05753 -10.84564,-3.12786 -26.66518,-10.60468 -36.8872,-17.43408 -31.95079,-21.34654 -53.54802,-53.44768 -60.96834,-90.62058 -2.6604,-13.32757 -2.39399,-38.50908 0.55327,-52.29594 5.89166,-27.560333 18.49067,-50.634869 38.53256,-70.570659 36.29605,-36.103918 88.23891,-49.7831568 138.3542,-36.435814 6.20043,1.651377 14.59729,4.322848 18.65967,5.936601 26.60877,10.570131 54.39272,37.145383 71.83394,68.708919 2.62443,4.749439 15.39731,28.926353 28.38418,53.726483 12.98687,24.80013 23.95456,45.47006 24.37264,45.93318 1.0771,1.19315 7.63715,-10.91002 42.46223,-78.34204 43.10814,-83.470567 45.4925,-87.879186 49.83958,-92.152318 6.87776,-6.76076 20.34023,-9.734646 30.85156,-6.815172 5.27326,1.464623 12.732,6.776533 16.51221,11.75954 4.00719,5.282204 5.54827,10.728718 5.43463,19.207136 -0.0773,5.766717 -0.71917,7.799438 -5.68415,18.000814 -9.42566,19.366578 -97.97348,191.18392 -109.12697,211.74893 -4.74053,8.74067 -9.94903,13.94755 -16.82627,16.82105 -5.26044,2.19795 -16.94814,2.76766 -22.09046,1.07678 z"
       style="fill:#002c66" />
  </g>
</svg>
